<svg width="40" height="40" viewBox="0 0 40 40" fill="none" xmlns="http://www.w3.org/2000/svg">
<path d="M8.31511 40C8.10014 40 7.88517 39.887 7.6702 39.774C7.24026 39.435 7.13277 38.9831 7.24026 38.5311L11.4322 24.9718L0.468707 16.4972C0.0387677 16.1582 -0.0687173 15.7062 0.0387676 15.2542C0.146253 14.8023 0.576192 14.4633 1.11362 14.4633H14.7642L18.8486 0.790961C18.9561 0.338983 19.3861 0 19.9235 0C20.4609 0 20.7834 0.338983 20.9983 0.790961L25.1902 14.4633H38.8408C39.2708 14.4633 39.7007 14.6893 39.9157 15.1412C40.1306 15.5932 39.9157 16.1582 39.4857 16.3842L28.5223 24.7458L32.7142 38.3051C32.8217 38.7571 32.7142 39.322 32.2842 39.548C31.8543 39.774 31.4244 39.887 30.9944 39.548L19.9235 31.4124L8.96002 39.774C8.74505 39.887 8.53008 40 8.31511 40ZM19.9235 28.8136C20.1384 28.8136 20.3534 28.9266 20.5684 29.0396L29.4896 35.9322L26.0501 24.8588C25.9426 24.4068 26.0501 23.8418 26.4801 23.6158L35.4013 16.7232H24.3304C23.9004 16.7232 23.4705 16.3842 23.2555 15.9322L19.9235 4.85876L16.484 15.9322C16.3765 16.3842 15.9465 16.7232 15.4091 16.7232H4.33816L13.2594 23.6158C13.6894 23.9548 13.7968 24.4068 13.6894 24.8588L10.3573 35.9322L19.2786 29.0396C19.4935 28.9266 19.7085 28.8136 19.9235 28.8136Z" fill="black"/>
</svg>
