<svg width="38" height="38" viewBox="0 0 38 38" fill="none" xmlns="http://www.w3.org/2000/svg">
<g filter="url(#filter0_d_93_3)">
<path d="M5.00003 0C4.73481 0 4.48044 0.105357 4.2929 0.292893C4.10536 0.48043 4 0.734784 4 1C4 1.26522 4.10536 1.51957 4.2929 1.70711C4.48044 1.89464 4.73481 2 5.00003 2H7.2201L8.02212 5.214L11.0182 21.184C11.0611 21.4132 11.1827 21.6201 11.362 21.7691C11.5414 21.9181 11.7671 21.9998 12.0002 22H14.0003C12.9394 22 11.922 22.4214 11.1718 23.1716C10.4216 23.9217 10.0002 24.9391 10.0002 26C10.0002 27.0609 10.4216 28.0783 11.1718 28.8284C11.922 29.5786 12.9394 30 14.0003 30C15.0612 30 16.0787 29.5786 16.8288 28.8284C17.579 28.0783 18.0004 27.0609 18.0004 26C18.0004 24.9391 17.579 23.9217 16.8288 23.1716C16.0787 22.4214 15.0612 22 14.0003 22H28.0007C26.9398 22 25.9224 22.4214 25.1722 23.1716C24.4221 23.9217 24.0006 24.9391 24.0006 26C24.0006 27.0609 24.4221 28.0783 25.1722 28.8284C25.9224 29.5786 26.9398 30 28.0007 30C29.0616 30 30.0791 29.5786 30.8293 28.8284C31.5794 28.0783 32.0009 27.0609 32.0009 26C32.0009 24.9391 31.5794 23.9217 30.8293 23.1716C30.0791 22.4214 29.0616 22 28.0007 22H30.0008C30.2339 21.9998 30.4597 21.9181 30.639 21.7691C30.8183 21.6201 30.9399 21.4132 30.9828 21.184L33.9829 5.184C34.0099 5.03967 34.0048 4.89117 33.968 4.74904C33.9311 4.6069 33.8634 4.47463 33.7697 4.36161C33.676 4.24859 33.5585 4.1576 33.4256 4.0951C33.2927 4.03261 33.1477 4.00014 33.0009 4H9.78018L8.97015 0.758C8.91617 0.541568 8.79137 0.349398 8.6156 0.212049C8.43984 0.0747014 8.22319 6.1623e-05 8.00012 0H5.00003ZM16.0004 26C16.0004 26.5304 15.7896 27.0391 15.4146 27.4142C15.0395 27.7893 14.5308 28 14.0003 28C13.4699 28 12.9611 27.7893 12.5861 27.4142C12.211 27.0391 12.0002 26.5304 12.0002 26C12.0002 25.4696 12.211 24.9609 12.5861 24.5858C12.9611 24.2107 13.4699 24 14.0003 24C14.5308 24 15.0395 24.2107 15.4146 24.5858C15.7896 24.9609 16.0004 25.4696 16.0004 26V26ZM30.0008 26C30.0008 26.5304 29.7901 27.0391 29.415 27.4142C29.0399 27.7893 28.5312 28 28.0007 28C27.4703 28 26.9616 27.7893 26.5865 27.4142C26.2114 27.0391 26.0007 26.5304 26.0007 26C26.0007 25.4696 26.2114 24.9609 26.5865 24.5858C26.9616 24.2107 27.4703 24 28.0007 24C28.5312 24 29.0399 24.2107 29.415 24.5858C29.7901 24.9609 30.0008 25.4696 30.0008 26V26ZM26.7087 10.708L20.7085 16.708C20.6156 16.8011 20.5053 16.875 20.3838 16.9254C20.2623 16.9758 20.132 17.0018 20.0005 17.0018C19.869 17.0018 19.7387 16.9758 19.6172 16.9254C19.4957 16.875 19.3854 16.8011 19.2925 16.708L16.2924 13.708C16.1994 13.615 16.1256 13.5046 16.0753 13.3832C16.025 13.2617 15.9991 13.1315 15.9991 13C15.9991 12.8685 16.025 12.7383 16.0753 12.6168C16.1256 12.4954 16.1994 12.385 16.2924 12.292C16.3854 12.199 16.4957 12.1253 16.6172 12.075C16.7387 12.0246 16.8689 11.9987 17.0004 11.9987C17.1319 11.9987 17.2621 12.0246 17.3836 12.075C17.5051 12.1253 17.6154 12.199 17.7084 12.292L20.0005 14.586L25.2927 9.292C25.3856 9.19902 25.496 9.12527 25.6175 9.07495C25.739 9.02463 25.8692 8.99874 26.0007 8.99874C26.1322 8.99874 26.2624 9.02463 26.3839 9.07495C26.5053 9.12527 26.6157 9.19902 26.7087 9.292C26.8017 9.38498 26.8754 9.49535 26.9258 9.61683C26.9761 9.73831 27.002 9.86851 27.002 10C27.002 10.1315 26.9761 10.2617 26.9258 10.3832C26.8754 10.5046 26.8017 10.615 26.7087 10.708V10.708Z" fill="black"/>
</g>
<defs>
<filter id="filter0_d_93_3" x="0" y="0" width="38" height="38" filterUnits="userSpaceOnUse" color-interpolation-filters="sRGB">
<feFlood flood-opacity="0" result="BackgroundImageFix"/>
<feColorMatrix in="SourceAlpha" type="matrix" values="0 0 0 0 0 0 0 0 0 0 0 0 0 0 0 0 0 0 127 0" result="hardAlpha"/>
<feOffset dy="4"/>
<feGaussianBlur stdDeviation="2"/>
<feComposite in2="hardAlpha" operator="out"/>
<feColorMatrix type="matrix" values="0 0 0 0 0 0 0 0 0 0 0 0 0 0 0 0 0 0 0.25 0"/>
<feBlend mode="normal" in2="BackgroundImageFix" result="effect1_dropShadow_93_3"/>
<feBlend mode="normal" in="SourceGraphic" in2="effect1_dropShadow_93_3" result="shape"/>
</filter>
</defs>
</svg>
