<svg width="21" height="20" viewBox="0 0 21 20" fill="none" xmlns="http://www.w3.org/2000/svg">
<path d="M19.9657 5.39315C19.8414 5.21169 19.6745 5.12097 19.4651 5.12097H6.13467L5.11379 1.55242C5.02217 1.22984 4.89783 0.954301 4.74077 0.725806C4.58371 0.497312 4.41684 0.336021 4.24014 0.241935C4.06345 0.147849 3.90966 0.0840054 3.77878 0.0504032C3.6479 0.0168011 3.51702 0 3.38613 0H0.696495C0.526348 0 0.382377 0.0604839 0.264582 0.181452C0.146788 0.302419 0.0878906 0.456989 0.0878906 0.645161C0.0878906 0.752688 0.114067 0.856855 0.16642 0.957661C0.218773 1.05847 0.294031 1.13575 0.392193 1.18952C0.490355 1.24328 0.591789 1.27016 0.696495 1.27016H3.38613C3.43849 1.27016 3.48757 1.27688 3.53338 1.29032C3.57919 1.30376 3.64136 1.36089 3.71988 1.46169C3.79841 1.5625 3.86386 1.71371 3.91621 1.91532L7.39114 15.0202C7.41732 15.1008 7.45986 15.1781 7.51875 15.252C7.57765 15.3259 7.64636 15.3831 7.72489 15.4234C7.80342 15.4637 7.8885 15.4839 7.98012 15.4839H16.4613C16.5922 15.4839 16.7133 15.4435 16.8245 15.3629C16.9358 15.2823 17.011 15.1815 17.0503 15.0605L20.054 5.9879C20.1195 5.77285 20.09 5.5746 19.9657 5.39315ZM16.0294 14.1935H8.47093L6.46842 6.41129H18.562L16.0294 14.1935ZM14.7926 16.7742C14.3606 16.7742 13.9909 16.9321 13.6833 17.248C13.3758 17.5638 13.222 17.9435 13.222 18.3871C13.222 18.8306 13.3758 19.2103 13.6833 19.5262C13.9909 19.8421 14.3606 20 14.7926 20C15.2245 20 15.5942 19.8421 15.9018 19.5262C16.2094 19.2103 16.3632 18.8306 16.3632 18.3871C16.3632 17.9435 16.2094 17.5638 15.9018 17.248C15.5942 16.9321 15.2245 16.7742 14.7926 16.7742ZM9.13843 16.7742C8.85049 16.7742 8.58545 16.8481 8.34332 16.996C8.10118 17.1438 7.9114 17.3387 7.77398 17.5806C7.63655 17.8226 7.56784 18.0914 7.56784 18.3871C7.56784 18.8306 7.72162 19.2103 8.0292 19.5262C8.33677 19.8421 8.70651 20 9.13843 20C9.57034 20 9.94008 19.8421 10.2477 19.5262C10.5552 19.2103 10.709 18.8306 10.709 18.3871C10.709 18.2796 10.6992 18.172 10.6796 18.0645C10.6599 17.957 10.6305 17.8562 10.5912 17.7621C10.552 17.668 10.5029 17.5773 10.444 17.4899C10.3851 17.4026 10.3196 17.3219 10.2477 17.248C10.1757 17.1741 10.0971 17.1069 10.0121 17.0464C9.927 16.9859 9.83865 16.9355 9.74703 16.8952C9.65541 16.8548 9.55725 16.8246 9.45255 16.8044C9.34784 16.7843 9.24313 16.7742 9.13843 16.7742Z" fill="black"/>
</svg>
