<svg width="20" height="20" viewBox="0 0 20 20" fill="none" xmlns="http://www.w3.org/2000/svg">
<path d="M10 0C8.63636 0 7.57102 0.525794 6.80398 1.57738C6.03693 2.62897 5.65341 3.97321 5.65341 5.61012C5.64394 7.64385 6.26894 9.25595 7.52841 10.4464C7.68939 10.6052 7.74621 10.8085 7.69886 11.0565L7.37216 11.7708C7.26799 12.0089 7.11411 12.1949 6.91051 12.3289C6.70691 12.4628 6.27841 12.6538 5.625 12.9018C5.59659 12.9117 4.99763 13.1151 3.82813 13.5119C2.65862 13.9087 2.03598 14.127 1.96023 14.1667C1.16477 14.5139 0.643939 14.876 0.397727 15.253C0.132576 15.878 0 17.4603 0 20H20C20 17.4603 19.8674 15.878 19.6023 15.253C19.3561 14.876 18.8352 14.5139 18.0398 14.1667C17.964 14.127 17.3414 13.9087 16.1719 13.5119C15.0024 13.1151 14.4034 12.9117 14.375 12.9018C13.7216 12.6538 13.2931 12.4628 13.0895 12.3289C12.8859 12.1949 12.732 12.0089 12.6278 11.7708L12.3011 11.0565C12.2538 10.8085 12.3106 10.6052 12.4716 10.4464C13.7311 9.25595 14.3561 7.64385 14.3466 5.61012C14.3466 3.97321 13.9631 2.62897 13.196 1.57738C12.429 0.525794 11.3636 0 10 0Z" fill="black"/>
</svg>
