<svg width="15" height="15" viewBox="0 0 15 15" fill="none" xmlns="http://www.w3.org/2000/svg">
<path d="M7.5 15C7.39641 14.9996 7.29585 14.9613 7.21402 14.8909C4.60735 12.6458 2.81175 10.7125 1.55529 8.80528C-0.0480894 6.36793 -0.413773 4.11767 0.467619 2.11686C1.09584 0.687706 2.90082 -0.481599 5.01054 0.199197C6.01642 0.521269 6.89404 1.21196 7.5 2.15843C8.10596 1.21196 8.98358 0.521269 9.98946 0.199197C12.0945 -0.471205 13.9042 0.687706 14.5324 2.11686C15.4138 4.11767 15.0481 6.36793 13.4447 8.80528C12.1883 10.7125 10.3927 12.6458 7.78598 14.8909C7.70415 14.9613 7.60359 14.9996 7.5 15V15ZM3.81034 1.04629C3.30835 1.02464 2.81051 1.15493 2.37027 1.4232C1.93003 1.69146 1.56401 2.08757 1.3115 2.56899C0.584825 4.22161 0.913003 6.06131 2.31479 8.18685C3.80452 10.3168 5.54894 12.2121 7.5 13.8203C9.45075 12.2137 11.1952 10.3202 12.6852 8.19205C14.0917 6.06131 14.4152 4.22161 13.6885 2.57419C13.2197 1.5348 11.8132 0.708494 10.2473 1.197C9.74523 1.36149 9.27976 1.64067 8.88088 2.0166C8.482 2.39252 8.15854 2.85685 7.93132 3.37971C7.896 3.47502 7.83591 3.55655 7.75869 3.61392C7.68148 3.6713 7.59062 3.70193 7.49766 3.70193C7.4047 3.70193 7.31384 3.6713 7.23662 3.61392C7.1594 3.55655 7.09931 3.47502 7.06399 3.37971C6.83848 2.85554 6.51557 2.39013 6.11644 2.01397C5.71732 1.63781 5.25098 1.35941 4.74799 1.197C4.44325 1.09889 4.12768 1.04817 3.81034 1.04629V1.04629Z" fill="#847F7F"/>
</svg>
